#define DarkLineDown10x9_width 10
#define DarkLineDown10x9_height 9
static unsigned char DarkLineDown10x9_bits[] = {
   0xff, 0x03, 0x03, 0x00, 0x02, 0x00, 0x06, 0x00, 0x04, 0x00, 0x0c, 0x00,
   0x08, 0x00, 0x18, 0x00, 0x10, 0x00};
