#define DarkLineUp10x9_width 10
#define DarkLineUp10x9_height 9
static unsigned char DarkLineUp10x9_bits[] = {
   0x10, 0x00, 0x18, 0x00, 0x08, 0x00, 0x0c, 0x00, 0x04, 0x00, 0x06, 0x00,
   0x02, 0x00, 0x03, 0x00, 0x00, 0x00};
