#define DarkLineDown12x11_width 12
#define DarkLineDown12x11_height 11
static unsigned char DarkLineDown12x11_bits[] = {
   0xff, 0x0f, 0x03, 0x00, 0x02, 0x00, 0x06, 0x00, 0x04, 0x00, 0x0c, 0x00,
   0x08, 0x00, 0x18, 0x00, 0x10, 0x00, 0x30, 0x00, 0x20, 0x00};
