#define DarkLineUp8x7_width 8
#define DarkLineUp8x7_height 7
static unsigned char DarkLineUp8x7_bits[] = {
   0x08, 0x0c, 0x04, 0x06, 0x02, 0x03, 0x00};
