#define DarkLineDown8x7_width 8
#define DarkLineDown8x7_height 7
static unsigned char DarkLineDown8x7_bits[] = {
   0xff, 0x03, 0x02, 0x06, 0x04, 0x0c, 0x08};
