#define LightLineDown8x7_width 8
#define LightLineDown8x7_height 7
static unsigned char LightLineDown8x7_bits[] = {
   0x00, 0xc0, 0x40, 0x60, 0x20, 0x30, 0x10};
