#define LightLineDown12x11_width 12
#define LightLineDown12x11_height 11
static unsigned char LightLineDown12x11_bits[] = {
   0x00, 0x00, 0x00, 0x0c, 0x00, 0x04, 0x00, 0x06, 0x00, 0x02, 0x00, 0x03,
   0x00, 0x01, 0x80, 0x01, 0x80, 0x00, 0xc0, 0x00, 0x40, 0x00};
