#define LightLineUp10x9_width 10
#define LightLineUp10x9_height 9
static unsigned char LightLineUp10x9_bits[] = {
   0x20, 0x00, 0x60, 0x00, 0x40, 0x00, 0xc0, 0x00, 0x80, 0x00, 0x80, 0x01,
   0x00, 0x01, 0x00, 0x03, 0xff, 0x03};
