#define TriangleDown12x11_width 12
#define TriangleDown12x11_height 11
static unsigned char TriangleDown12x11_bits[] = {
   0xff, 0x0f, 0xff, 0x0f, 0xfe, 0x07, 0xfe, 0x07, 0xfc, 0x03, 0xfc, 0x03,
   0xf8, 0x01, 0xf8, 0x01, 0xf0, 0x00, 0xf0, 0x00, 0x60, 0x00};
