#define TriangleDown10x9_width 10
#define TriangleDown10x9_height 9
static unsigned char TriangleDown10x9_bits[] = {
   0xff, 0x03, 0xff, 0x03, 0xfe, 0x01, 0xfe, 0x01, 0xfc, 0x00, 0xfc, 0x00,
   0x78, 0x00, 0x78, 0x00, 0x30, 0x00};
