#define TriangleUp12x11_width 12
#define TriangleUp12x11_height 11
static unsigned char TriangleUp12x11_bits[] = {
   0x60, 0x00, 0xf0, 0x00, 0xf0, 0x00, 0xf8, 0x01, 0xf8, 0x01, 0xfc, 0x03,
   0xfc, 0x03, 0xfe, 0x07, 0xfe, 0x07, 0xff, 0x0f, 0xff, 0x0f};
