#define comp_width 14
#define comp_height 12
static unsigned char comp_bits[] = {
   0xff, 0x3f, 0x01, 0x20, 0xfd, 0x3f, 0x05, 0x20, 0xf5, 0x3f, 0x15, 0x20,
   0xd5, 0x3f, 0x55, 0x20, 0x55, 0x3f, 0x55, 0x21, 0x55, 0x21, 0xff, 0x3f};
