#define leaf_width 14
#define leaf_height 12
static unsigned char leaf_bits[] = {
   0xff, 0x3f, 0x01, 0x20, 0x01, 0x20, 0x01, 0x20, 0x01, 0x20, 0x01, 0x20,
   0x01, 0x20, 0x01, 0x20, 0x01, 0x20, 0x01, 0x20, 0x01, 0x20, 0xff, 0x3f};
