<?xml version="1.0" encoding="UTF-8" standalone="no"?>
<!-- Created with Inkscape (http://www.inkscape.org/) -->

<svg
   xmlns:dc="http://purl.org/dc/elements/1.1/"
   xmlns:cc="http://creativecommons.org/ns#"
   xmlns:rdf="http://www.w3.org/1999/02/22-rdf-syntax-ns#"
   xmlns:svg="http://www.w3.org/2000/svg"
   xmlns="http://www.w3.org/2000/svg"
   xmlns:sodipodi="http://sodipodi.sourceforge.net/DTD/sodipodi-0.dtd"
   xmlns:inkscape="http://www.inkscape.org/namespaces/inkscape"
   version="1.0"
   width="128"
   height="128"
   id="svg2440"
   sodipodi:docname="sguil-icon-white.svg"
   inkscape:version="0.92.2 5c3e80d, 2017-08-06">
  <metadata
     id="metadata3802">
    <rdf:RDF>
      <cc:Work
         rdf:about="">
        <dc:format>image/svg+xml</dc:format>
        <dc:type
           rdf:resource="http://purl.org/dc/dcmitype/StillImage" />
        <dc:title></dc:title>
      </cc:Work>
    </rdf:RDF>
  </metadata>
  <sodipodi:namedview
     pagecolor="#ffffff"
     bordercolor="#666666"
     borderopacity="1"
     objecttolerance="10"
     gridtolerance="10"
     guidetolerance="10"
     inkscape:pageopacity="0"
     inkscape:pageshadow="2"
     inkscape:window-width="1181"
     inkscape:window-height="841"
     id="namedview3800"
     showgrid="false"
     inkscape:zoom="1"
     inkscape:cx="64"
     inkscape:cy="64"
     inkscape:window-x="0"
     inkscape:window-y="0"
     inkscape:window-maximized="0"
     inkscape:current-layer="svg2440"
     inkscape:pagecheckerboard="true" />
  <defs
     id="defs2443">
    <filter
       inkscape:label="filter1"
       id="filter2574">
      <feGaussianBlur
         id="feGaussianBlur2584"
         stdDeviation="2" />
    </filter>
  </defs>
  <path
     d="M 20.455598,118.9898 C 18.719397,117.52887 17.298873,115.71361 17.298873,114.95587 C 17.298873,113.48461 21.964217,107.42878 29.8427,98.6734 C 34.126973,93.912291 39.870882,83.496107 39.870882,80.487968 C 39.870882,79.890939 41.312982,77.394352 43.075574,74.939999 L 46.280266,70.477543 L 44.421192,65.307654 C 42.745848,60.648674 42.696828,59.450802 43.925216,53.186382 C 45.208514,46.641824 49.511519,36.72741 55.625567,26.227998 C 58.69249,20.961288 59.0191,17.181519 56.781204,12.853913 C 54.873813,9.165399 50.992455,7.9854684 47.751664,10.108925 C 45.539114,11.558643 42.948882,17.687795 42.948882,21.473535 C 42.948882,25.126441 41.087737,22.869007 40.418158,18.403956 C 39.741606,13.892365 39.898185,13.461556 43.587871,9.682957 C 46.724809,6.4704635 48.203788,5.7080011 51.298298,5.7080011 C 59.888407,5.7080011 64.484203,10.499989 64.491043,19.46392 C 64.49414,23.526763 63.394933,26.696154 58.797636,35.879918 C 54.681476,44.102611 52.936326,48.868484 52.509149,53.05349 C 51.705867,60.92302 52.743818,61.4225 65.848232,59.472505 C 74.597466,58.170584 77.002353,58.173736 85.296936,59.498032 C 90.502651,60.329164 96.648961,60.750755 98.955389,60.434893 C 104.89551,59.62142 109.63888,62.181761 109.63888,66.201553 C 109.63888,69.807814 107.91155,74.633164 106.24018,75.695912 C 105.57011,76.121979 103.11926,76.477652 100.79383,76.486291 C 96.63796,76.501732 96.508532,76.613627 93.211633,83.041599 C 90.931367,87.487432 90.057101,90.36175 90.480972,92.019099 C 90.823903,93.359942 93.543335,98.11313 96.524169,102.58176 C 100.40817,108.40433 103.68821,111.92891 108.09988,115.02049 C 111.48568,117.39317 114.25588,119.73914 114.25588,120.23373 C 114.25588,120.72834 112.36196,121.27163 110.04717,121.44107 C 106.48891,121.70154 105.57349,121.34476 104.12402,119.13257 C 103.18106,117.69345 101.82731,116.516 101.11567,116.516 C 100.40402,116.516 97.313961,113.97665 94.248881,110.873 C 91.183782,107.76935 88.083077,105.23 87.358417,105.23 C 86.47942,105.23 86.040881,106.77833 86.040881,109.8816 C 86.040881,114.12069 86.363178,114.72337 89.675087,116.67744 C 95.685338,120.22357 93.774318,121.133 80.312381,121.133 L 68.085881,121.133 L 68.400141,108.821 L 68.714382,96.509002 L 64.578158,93.138003 C 60.713729,89.988512 53.635241,86.761998 50.590168,86.761998 C 49.856084,86.761998 47.747484,89.416773 45.904408,92.661498 C 41.743902,99.986 33.269864,109.7991 28.841381,112.42076 C 25.001728,114.69384 24.624084,116.49708 27.598686,118.35475 C 28.749174,119.07325 29.414478,120.1077 29.077133,120.65356 C 27.939318,122.49458 23.633234,121.6636 20.455598,118.9898 z M 80.61184,116.2595 C 81.243723,115.43106 81.013747,111.50886 79.962268,105.18132 C 78.911169,98.85618 78.601925,93.585358 79.089408,90.304315 C 80.00612,84.134289 79.565434,82.657998 76.806881,82.657998 C 74.166641,82.657998 73.067529,85.241856 74.813059,87.345116 C 77.58229,90.681831 77.244888,106.35393 74.245909,113.68789 C 73.71237,114.99268 74.168142,115.73864 75.930126,116.44435 C 79.190887,117.75039 79.483487,117.73884 80.61184,116.2595 z"
     id="path2507"
     style="fill:#000000;filter:url(#filter2574)" />
  <path
     d="M 20.860823,117.75545 C 19.124623,116.29452 17.704103,114.47925 17.704103,113.72151 C 17.704103,112.25025 22.369443,106.19441 30.247923,97.439052 C 34.532193,92.677933 40.276103,82.261753 40.276103,79.253613 C 40.276103,78.656583 41.718203,76.160002 43.480793,73.705641 L 46.685483,69.243191 L 44.826413,64.073301 C 43.151073,59.414321 43.102053,58.216441 44.330433,51.952022 C 45.613733,45.407472 49.916743,35.493052 56.030793,24.993642 C 59.097713,19.726932 59.424323,15.947162 57.186423,11.619552 C 55.279033,7.9310422 51.397673,6.7511126 48.156883,8.8745622 C 45.944333,10.324282 43.354103,16.453442 43.354103,20.239182 C 43.354103,23.892082 41.492963,21.634652 40.823383,17.169592 C 40.146823,12.658012 40.303403,12.227202 43.993093,8.4486022 C 47.130033,5.2361029 48.609013,4.4736429 51.703523,4.4736429 C 60.293633,4.4736429 64.889419,9.2656322 64.896259,18.229572 C 64.899359,22.292402 63.800149,25.461792 59.202863,34.645562 C 55.086703,42.868252 53.341553,47.634132 52.914373,51.819132 C 52.111093,59.688661 53.149043,60.188141 66.253449,58.238151 C 75.002689,56.936222 77.407569,56.939382 85.702159,58.263681 C 90.907879,59.094801 97.054189,59.516391 99.360619,59.200541 C 105.30074,58.387061 110.04411,60.947401 110.04411,64.967191 C 110.04411,68.573461 108.31678,73.398801 106.64541,74.461561 C 105.97534,74.887622 103.52449,75.243292 101.19906,75.251932 C 97.043189,75.267382 96.913759,75.379272 93.616859,81.807243 C 91.336599,86.253073 90.462329,89.127393 90.886199,90.784743 C 91.229129,92.125583 93.948559,96.878772 96.929399,101.3474 C 100.8134,107.16996 104.09344,110.69454 108.50511,113.78613 C 111.89091,116.15882 114.66111,118.50479 114.66111,118.99938 C 114.66111,119.49399 112.76719,120.03728 110.4524,120.20672 C 106.89414,120.46719 105.97872,120.11041 104.52925,117.89822 C 103.58629,116.4591 102.23254,115.28164 101.5209,115.28164 C 100.80925,115.28164 97.719189,112.74229 94.654109,109.63863 C 91.589009,106.53498 88.488299,103.99563 87.763639,103.99563 C 86.884639,103.99563 86.446099,105.54396 86.446099,108.64723 C 86.446099,112.88633 86.768399,113.48901 90.080309,115.44309 C 96.090569,118.98922 94.179549,119.89865 80.717599,119.89865 L 68.491099,119.89865 L 68.805359,107.58663 L 69.119599,95.274642 L 64.983379,91.903643 C 61.118953,88.754153 54.040463,85.527643 50.995393,85.527643 C 50.261303,85.527643 48.152703,88.182423 46.309633,91.427143 C 42.149123,98.751639 33.675083,108.56473 29.246603,111.1864 C 25.406953,113.45948 25.029303,115.26272 28.003913,117.1204 C 29.154393,117.8389 29.819703,118.87335 29.482353,119.41921 C 28.344543,121.26023 24.038453,120.42925 20.860823,117.75545 z M 81.017059,115.02514 C 81.648939,114.1967 81.418969,110.27449 80.367489,103.94695 C 79.316389,97.621832 79.007139,92.351003 79.494629,89.069953 C 80.411339,82.899933 79.970649,81.423643 77.212099,81.423643 C 74.571859,81.423643 73.472749,84.007503 75.218279,86.110763 C 77.987509,89.447473 77.650109,105.11956 74.651129,112.45353 C 74.117589,113.75832 74.573359,114.50428 76.335349,115.20999 C 79.596109,116.51604 79.888709,116.50449 81.017059,115.02514 z"
     id="path2586"
     style="fill:#ffffff"
     inkscape:export-xdpi="96"
     inkscape:export-ydpi="96" />
</svg>
